# WaveFront *.obj file (generated by Autodesk ATF)

mtllib table_2024.mtl

g 實體1

v -1521.999969 -1021.999969 -22.000000
v -1521.999969 -1021.999969 70.000000
v -1521.999969 1021.999969 -22.000000
v -1521.999969 1021.999969 70.000000
v -1500.000000 -1000.000000 0.000000
v -1500.000000 -1000.000000 70.000000
v -1500.000000 1000.000000 0.000000
v -1500.000000 1000.000000 70.000000
v 1500.000000 -1000.000000 0.000000
v 1500.000000 -1000.000000 70.000000
v 1500.000000 1000.000000 0.000000
v 1500.000000 1000.000000 70.000000
v 1521.999969 -1021.999969 -22.000000
v 1521.999969 -1021.999969 70.000000
v 1521.999969 1021.999969 -22.000000
v 1521.999969 1021.999969 70.000000
vt 0.000000 7.000000 0.000000
vt 0.000000 -2.200000 0.000000
vt 204.400009 -2.200000 0.000000
vt 204.400009 7.000000 0.000000
vt -304.399994 7.000000 0.000000
vt -304.399994 -2.200000 0.000000
vt -0.000000 -2.200000 0.000000
vt -0.000000 7.000000 0.000000
vt -304.399994 7.000000 0.000000
vt -304.399994 -2.200000 0.000000
vt -0.000000 -2.200000 0.000000
vt -0.000000 7.000000 0.000000
vt -152.199997 102.200005 0.000000
vt -152.199997 -102.200005 0.000000
vt 152.199997 -102.200005 0.000000
vt 152.199997 102.200005 0.000000
vt -150.000000 100.000000 0.000000
vt 150.000000 100.000000 0.000000
vt 150.000000 -100.000000 0.000000
vt -150.000000 -100.000000 0.000000
vt 0.000000 7.000000 0.000000
vt 0.000000 -2.200000 0.000000
vt 204.400009 -2.200000 0.000000
vt 204.400009 7.000000 0.000000
vt -0.000000 0.000000 0.000000
vt -300.000000 0.000000 0.000000
vt -300.000000 -7.000000 0.000000
vt -0.000000 -7.000000 0.000000
vt 0.000000 0.000000 0.000000
vt 0.000000 -7.000000 0.000000
vt 200.000000 -7.000000 0.000000
vt 200.000000 0.000000 0.000000
vt -0.000000 0.000000 0.000000
vt -300.000000 0.000000 0.000000
vt -300.000000 -7.000000 0.000000
vt -0.000000 -7.000000 0.000000
vt 0.000000 0.000000 0.000000
vt 0.000000 -7.000000 0.000000
vt 200.000000 -7.000000 0.000000
vt 200.000000 0.000000 0.000000
vt -150.000000 100.000000 0.000000
vt -150.000000 -100.000000 0.000000
vt 150.000000 -100.000000 0.000000
vt 150.000000 100.000000 0.000000
vt 152.199997 102.200005 0.000000
vt -152.199997 102.200005 0.000000
vt -152.199997 -102.200005 0.000000
vt 152.199997 -102.200005 0.000000
vn -0.100000 0.000000 0.000000
vn -0.100000 0.000000 0.000000
vn -0.100000 0.000000 0.000000
vn -0.100000 0.000000 0.000000
vn 0.000000 0.100000 0.000000
vn 0.000000 0.100000 0.000000
vn 0.000000 0.100000 0.000000
vn 0.000000 0.100000 0.000000
vn 0.000000 -0.100000 0.000000
vn 0.000000 -0.100000 0.000000
vn 0.000000 -0.100000 0.000000
vn 0.000000 -0.100000 0.000000
vn 0.000000 0.000000 0.100000
vn 0.000000 0.000000 0.100000
vn 0.000000 0.000000 0.100000
vn 0.000000 0.000000 0.100000
vn 0.000000 0.000000 0.100000
vn 0.000000 0.000000 0.100000
vn 0.000000 0.000000 0.100000
vn 0.000000 0.000000 0.100000
vn 0.100000 0.000000 0.000000
vn 0.100000 0.000000 0.000000
vn 0.100000 0.000000 0.000000
vn 0.100000 0.000000 0.000000
vn 0.000000 -0.100000 0.000000
vn 0.000000 -0.100000 0.000000
vn 0.000000 -0.100000 0.000000
vn 0.000000 -0.100000 0.000000
vn -0.100000 0.000000 0.000000
vn -0.100000 0.000000 0.000000
vn -0.100000 0.000000 0.000000
vn -0.100000 0.000000 0.000000
vn 0.000000 0.100000 0.000000
vn 0.000000 0.100000 0.000000
vn 0.000000 0.100000 0.000000
vn 0.000000 0.100000 0.000000
vn 0.100000 0.000000 0.000000
vn 0.100000 0.000000 0.000000
vn 0.100000 0.000000 0.000000
vn 0.100000 0.000000 0.000000
vn 0.000000 0.000000 0.100000
vn 0.000000 0.000000 0.100000
vn 0.000000 0.000000 0.100000
vn 0.000000 0.000000 0.100000
vn 0.000000 0.000000 -0.100000
vn 0.000000 0.000000 -0.100000
vn 0.000000 0.000000 -0.100000
vn 0.000000 0.000000 -0.100000
usemtl 197,197,197
f 3/2/2 1/3/3 4/1/1
f 4/1/1 1/3/3 2/4/4
f 15/6/6 3/7/7 16/5/5
f 16/5/5 3/7/7 4/8/8
f 1/10/10 13/11/11 2/9/9
f 2/9/9 13/11/11 14/12/12
f 2/14/14 8/17/17 4/13/13
f 4/13/13 8/17/17 12/18/18
f 4/13/13 12/18/18 16/16/16
f 16/16/16 12/18/18 14/15/15
f 14/15/15 12/18/18 10/19/19
f 14/15/15 10/19/19 6/20/20
f 8/17/17 2/14/14 6/20/20
f 6/20/20 2/14/14 14/15/15
f 13/22/22 15/23/23 14/21/21
f 14/21/21 15/23/23 16/24/24
f 7/25/25 11/26/26 8/28/28
f 8/28/28 11/26/26 12/27/27
f 10/30/30 12/31/31 9/29/29
f 9/29/29 12/31/31 11/32/32
f 9/33/33 5/34/34 10/36/36
f 10/36/36 5/34/34 6/35/35
f 8/38/38 6/39/39 7/37/37
f 7/37/37 6/39/39 5/40/40
f 5/42/42 9/43/43 7/41/41
f 7/41/41 9/43/43 11/44/44
f 3/45/45 15/46/46 1/48/48
f 1/48/48 15/46/46 13/47/47
# 16 vertices
# 48 texture params
# 48 normals
# 28 facets

# 1 groups
